<?xml version="1.0" encoding="UTF-8" standalone="no"?>
<svg width="252px" height="23px" viewBox="0 0 252 23" version="1.1" xmlns="http://www.w3.org/2000/svg" xmlns:xlink="http://www.w3.org/1999/xlink" xmlns:sketch="http://www.bohemiancoding.com/sketch/ns">
    <!-- Generator: Sketch 3.3.3 (12072) - http://www.bohemiancoding.com/sketch -->
    <title>iconfont-touxiang</title>
    <desc>Created with Sketch.</desc>
    <defs></defs>
    <g id="Page-1" stroke="none" stroke-width="1" fill="none" fill-rule="evenodd" sketch:type="MSPage">
        <g id="A4" sketch:type="MSArtboardGroup" transform="translate(-220.000000, -406.000000)">
            <g id="iconfont-touxiang" sketch:type="MSLayerGroup" transform="translate(219.005480, 407.500000)">
                <path d="M129.331181,8.66394989 L125.501687,8.66394989 C121.916735,8.66394989 119,5.79198419 119,2.26086406 L119,1.88413469 C119,-3.55271368e-15 121.869339,-3.55271368e-15 125.501687,-3.55271368e-15 L129.3312,-3.55271368e-15 C132.819183,-3.55271368e-15 135.832342,-3.55271368e-15 135.832887,1.88413469 L135.832887,2.26086406 C135.832887,5.79140253 132.915589,8.66394989 129.331181,8.66394989 L129.331181,8.66394989 Z M127.22487,19.2136106 C124.37846,19.2136106 122.064327,16.9325197 122.064327,14.1281957 C122.064327,11.3238716 124.37846,9.04225538 127.22487,9.04225538 C130.070248,9.04225538 132.385413,11.3238341 132.385413,14.1281957 C132.385413,16.9325197 130.071299,19.2136106 127.22487,19.2136106 L127.22487,19.2136106 Z" id="Shape" fill="#424242" sketch:type="MSShapeGroup" transform="translate(127.416443, 9.606805) scale(1, -1) translate(-127.416443, -9.606805) "></path>
                <path d="M1.49451995,10 L85.49452,10" id="Line-Copy-3" stroke="#424242" stroke-linecap="square" sketch:type="MSShapeGroup"></path>
                <path d="M168.49452,10 L252.49452,10" id="Line-Copy-2" stroke="#424242" stroke-linecap="square" sketch:type="MSShapeGroup"></path>
            </g>
        </g>
    </g>
</svg>