<?xml version="1.0" encoding="UTF-8" standalone="no"?>
<svg width="252px" height="22px" viewBox="0 0 252 22" version="1.1" xmlns="http://www.w3.org/2000/svg" xmlns:xlink="http://www.w3.org/1999/xlink" xmlns:sketch="http://www.bohemiancoding.com/sketch/ns">
    <!-- Generator: Sketch 3.3.3 (12072) - http://www.bohemiancoding.com/sketch -->
    <title>iconfont-touxiang copy</title>
    <desc>Created with Sketch.</desc>
    <defs></defs>
    <g id="Page-1" stroke="none" stroke-width="1" fill="none" fill-rule="evenodd" sketch:type="MSPage">
        <g id="A4" sketch:type="MSArtboardGroup" transform="translate(-220.000000, -441.000000)">
            <g id="iconfont-zhaoxiangji" sketch:type="MSLayerGroup" transform="translate(336.000000, 443.000000)" fill="#FFFFFF">
                <path d="M7.0078125,18 L5.15781251,16 L2.00781251,16 C0.907812516,16 0.00781251562,15.1 0.00781251562,14 L0.00781251562,1.99999999 C0.00781251562,0.9 0.907812516,0 2.00781251,0 L18.0078125,0 C19.1078125,0 20.0078125,0.9 20.0078125,1.99999999 L20.0078125,14 C20.0078125,15.1 19.1078125,16 18.0078125,16 L14.8578125,16 L13.0078125,18 L7.0078125,18 Z M10.0078125,2.99999998 C7.25781251,2.99999998 5.00781251,5.24999998 5.00781251,7.99999997 C5.00781251,10.75 7.25781251,13 10.0078125,13 C12.7578125,13 15.0078125,10.75 15.0078125,7.99999997 C15.0078125,5.24999998 12.7578125,2.99999998 10.0078125,2.99999998 Z M6.80781251,7.99999997 C6.80781251,9.76731117 8.24050131,11.2 10.0078125,11.2 C11.7751237,11.2 13.2078125,9.76731117 13.2078125,7.99999997 C13.2078125,6.23268877 11.7751237,4.79999996 10.0078125,4.79999996 C8.24050131,4.79999996 6.80781251,6.23268877 6.80781251,7.99999997 Z" id="Shape" sketch:type="MSShapeGroup" transform="translate(10.007813, 9.000000) scale(1, -1) translate(-10.007813, -9.000000) "></path>
            </g>
            <path d="M220.5,452.5 L304.5,452.5" id="Line-Copy-5" stroke="#FFFFFF" stroke-linecap="square" sketch:type="MSShapeGroup"></path>
            <path d="M387.5,452.5 L471.5,452.5" id="Line-Copy-4" stroke="#FFFFFF" stroke-linecap="square" sketch:type="MSShapeGroup"></path>
        </g>
    </g>
</svg>